<svg width="auto" viewBox="0 0 914 538" fill="none" 
    xmlns="http://www.w3.org/2000/svg">
    <path d="M0.169996 167.58C-0.0600039 157.67 6.41 153.71 17.23 154.18C21.18 141.58 33.15 139.98 47.33 142.21C53.03 127 81.36 117.43 100.01 127.85C106.54 131.5 109.9 136.9 115.06 141.73C133.25 134.7 153.19 148.88 149.17 167.58C99.51 167.58 49.83 167.58 0.169996 167.58Z" fill="#F6F9F8"/>
    <path d="M80.5202 152.98C84.5402 152.98 87.7902 149.87 87.7902 146.04H73.2402C73.2402 149.87 76.5002 152.98 80.5202 152.98Z" fill="#D8E5E1"/>
    <path d="M65.9198 143.62C68.5698 146.21 68.5698 150.41 65.9198 153C63.2698 155.59 58.9698 155.59 56.3198 153C53.6798 150.41 53.6798 146.21 56.3198 143.62C58.9698 141.03 63.2698 141.03 65.9198 143.62Z" stroke="#D8E5E1" stroke-width="2" stroke-miterlimit="10"/>
    <path d="M105.18 143.65C107.71 146.24 107.71 150.45 105.18 153.04C102.64 155.63 98.54 155.63 96 153.04C93.47 150.45 93.47 146.24 96 143.65C98.54 141.06 102.64 141.06 105.18 143.65Z" stroke="#D8E5E1" stroke-width="2" stroke-miterlimit="10"/>
    <path d="M764.17 44.58C763.94 34.67 770.41 30.71 781.23 31.18C785.18 18.58 797.15 16.98 811.33 19.21C817.03 4 845.36 -5.57 864.01 4.85C870.54 8.5 873.9 13.9 879.06 18.73C897.25 11.7 917.19 25.88 913.17 44.58C863.51 44.58 813.83 44.58 764.17 44.58Z" fill="#F6F9F8"/>
    <path d="M844.52 29.98C848.54 29.98 851.79 26.87 851.79 23.04H837.24C837.24 26.87 840.5 29.98 844.52 29.98Z" fill="#D8E5E1"/>
    <path d="M829.92 20.62C832.57 23.21 832.57 27.41 829.92 30C827.27 32.59 822.97 32.59 820.32 30C817.68 27.41 817.68 23.21 820.32 20.62C822.97 18.03 827.27 18.03 829.92 20.62Z" stroke="#D8E5E1" stroke-width="2" stroke-miterlimit="10"/>
    <path d="M869.18 20.65C871.71 23.24 871.71 27.45 869.18 30.04C866.64 32.63 862.54 32.63 860 30.04C857.47 27.45 857.47 23.24 860 20.65C862.54 18.06 866.64 18.06 869.18 20.65Z" stroke="#D8E5E1" stroke-width="2" stroke-miterlimit="10"/>
    <g clip-path="url(#clip0)">
        <path d="M126 321H122V465H126V321Z" fill="white"/>
        <path d="M85.5 346.83L126.5 331.5V363.5L85.5 346.83Z" fill="#F4A0A0"/>
        <path d="M85.5 326.83L126.5 311.5V343.5L85.5 326.83Z" fill="#58D6B9"/>
        <path d="M786 321H782V465H786V321Z" fill="white"/>
        <path d="M745.5 346.83L786.5 331.5V363.5L745.5 346.83Z" fill="#58D6B9"/>
        <path d="M745.5 326.83L786.5 311.5V343.5L745.5 326.83Z" fill="#F4A0A0"/>
        <path d="M491 275H468V298H491V275Z" fill="#CA8A65"/>
        <path d="M477 279H471V285H477V279Z" fill="#C6F7FB"/>
        <path d="M489 279H483V285H489V279Z" fill="#C6F7FB"/>
        <path d="M477 289H471V295H477V289Z" fill="#C6F7FB"/>
        <path d="M489 289H483V298H489V289Z" fill="#70595E"/>
        <path d="M479.5 263.38L494.94 275.79H464.06L479.5 263.38Z" fill="#70595E"/>
        <path d="M484.01 257.3C484.1 251.79 485.3 247.64 486.67 248.02C488.05 248.41 489.09 253.19 488.99 258.7C488.9 264.21 487.7 268.36 486.33 267.98C485.02 267.61 484 263.25 484 258" fill="url(#paint0_linear)"/>
        <path d="M489.5 264H483V273H489.5V264Z" fill="#70595E"/>
        <path d="M269 469C269 370.14 353.62 290 458 290C562.38 290 647 370.14 647 469H458H269Z" fill="#3E9C87"/>
        <path d="M390 621C390 497.29 494.09 397 622.5 397C750.91 397 855 497.29 855 621H622.5H390Z" fill="white"/>
        <path d="M60 606C60 476.21 173.94 371 314.5 371C455.06 371 569 476.21 569 606H314.5H60Z" fill="#4AB19A"/>
        <path d="M161 459C167.627 459 173 456.538 173 453.5C173 450.462 167.627 448 161 448C154.373 448 149 450.462 149 453.5C149 456.538 154.373 459 161 459Z" fill="#439F8A"/>
        <path d="M146.5 439.5L159.88 383.5L175.5 439.5H146.5Z" fill="#F6D546"/>
        <path d="M162 416H160V453H162V416Z" fill="#AF946C"/>
        <path d="M160.5 425.34L166.23 419.5L167.5 420.8L161.14 427.28L160.71 427.5L160.5 425.34Z" fill="#AF946C"/>
        <path d="M160.5 433.34L166.23 427.5L167.5 428.8L161.14 435.28L160.71 435.5L160.5 433.34Z" fill="#AF946C"/>
        <path d="M161.5 429.34L155.77 423.5L154.5 424.8L160.86 431.28L161.29 431.5L161.5 429.34Z" fill="#AF946C"/>
        <path d="M235.25 429C240.911 429 245.5 427.209 245.5 425C245.5 422.791 240.911 421 235.25 421C229.589 421 225 422.791 225 425C225 427.209 229.589 429 235.25 429Z" fill="#439F8A"/>
        <path d="M220.5 413.3L233.88 362.45L249.5 413.3H220.5Z" fill="#F4A0A0"/>
        <path d="M236 395H234V425H236V395Z" fill="#AF946C"/>
        <path d="M234.5 400.44L240.23 395.14L241.5 396.32L235.14 402.21L234.71 402.4L234.5 400.44Z" fill="#AF946C"/>
        <path d="M234.5 407.7L240.23 402.4L241.5 403.58L235.14 409.47L234.71 409.66L234.5 407.7Z" fill="#AF946C"/>
        <path d="M235.5 404.07L229.77 398.77L228.5 399.95L234.86 405.84L235.29 406.03L235.5 404.07Z" fill="#AF946C"/>
        <path d="M659.75 437C665.687 437 670.5 435.209 670.5 433C670.5 430.791 665.687 429 659.75 429C653.813 429 649 430.791 649 433C649 435.209 653.813 437 659.75 437Z" fill="#E0EBE8"/>
        <path d="M645.5 421.3L658.88 370.45L674.5 421.3H645.5Z" fill="#F4A0A0"/>
        <path d="M661 403H659V433H661V403Z" fill="#AF946C"/>
        <path d="M659.5 408.44L665.23 403.14L666.5 404.32L660.14 410.21L659.71 410.4L659.5 408.44Z" fill="#AF946C"/>
        <path d="M659.5 415.7L665.23 410.4L666.5 411.58L660.14 417.47L659.71 417.66L659.5 415.7Z" fill="#AF946C"/>
        <path d="M660.5 412.07L654.77 406.77L653.5 407.95L659.86 413.84L660.29 414.03L660.5 412.07Z" fill="#AF946C"/>
        <path d="M736 453C741.523 453 746 451.209 746 449C746 446.791 741.523 445 736 445C730.477 445 726 446.791 726 449C726 451.209 730.477 453 736 453Z" fill="#E0EBE8"/>
        <path d="M721.5 435.5L734.88 379.5L750.5 435.5H721.5Z" fill="#F6D546"/>
        <path d="M737 412H735V449H737V412Z" fill="#AF946C"/>
        <path d="M735.5 421.34L741.23 415.5L742.5 416.8L736.14 423.28L735.71 423.5L735.5 421.34Z" fill="#AF946C"/>
        <path d="M735.5 429.34L741.23 423.5L742.5 424.8L736.14 431.28L735.71 431.5L735.5 429.34Z" fill="#AF946C"/>
        <path d="M736.5 425.34L730.77 419.5L729.5 420.8L735.86 427.28L736.29 427.5L736.5 425.34Z" fill="#AF946C"/>
        <path d="M702 491C708.627 491 714 489.209 714 487C714 484.791 708.627 483 702 483C695.373 483 690 484.791 690 487C690 489.209 695.373 491 702 491Z" fill="#E0EBE8"/>
        <path d="M684.5 476.51L700.88 414.49L720 476.51H684.5Z" fill="#217D68"/>
        <path d="M703 454H701V487H703V454Z" fill="#AF946C"/>
        <path d="M701.5 460.75L707.23 454.99L708.5 456.27L702.14 462.68L701.71 462.89L701.5 460.75Z" fill="#AF946C"/>
        <path d="M701.5 468.65L707.23 462.89L708.5 464.17L702.14 470.58L701.71 470.79L701.5 468.65Z" fill="#AF946C"/>
        <path d="M702.5 464.7L696.77 458.94L695.5 460.22L701.86 466.63L702.29 466.84L702.5 464.7Z" fill="#AF946C"/>
        <path d="M200 443C206.627 443 212 440.538 212 437.5C212 434.462 206.627 432 200 432C193.373 432 188 434.462 188 437.5C188 440.538 193.373 443 200 443Z" fill="#439F8A"/>
        <path d="M184.5 423.5L199.27 354.5L216.5 423.5H184.5Z" fill="#217D68"/>
        <path d="M201 400H199V437H201V400Z" fill="#AF946C"/>
        <path d="M199.5 409.34L205.23 403.5L206.5 404.8L200.14 411.28L199.71 411.5L199.5 409.34Z" fill="#AF946C"/>
        <path d="M199.5 417.34L205.23 411.5L206.5 412.8L200.14 419.28L199.71 419.5L199.5 417.34Z" fill="#AF946C"/>
        <path d="M200.5 413.34L194.77 407.5L193.5 408.8L199.86 415.28L200.29 415.5L200.5 413.34Z" fill="#AF946C"/>
        <path d="M406 334C412.627 334 418 331.538 418 328.5C418 325.462 412.627 323 406 323C399.373 323 394 325.462 394 328.5C394 331.538 399.373 334 406 334Z" fill="#378C79"/>
        <path d="M390.5 314.5L405.27 245.5L422.5 314.5H390.5Z" fill="#8FD182"/>
        <path d="M407 291H405V328H407V291Z" fill="#AF946C"/>
        <path d="M405.5 300.34L411.23 294.5L412.5 295.8L406.14 302.28L405.71 302.5L405.5 300.34Z" fill="#AF946C"/>
        <path d="M405.5 308.34L411.23 302.5L412.5 303.8L406.14 310.28L405.71 310.5L405.5 308.34Z" fill="#AF946C"/>
        <path d="M406.5 304.34L400.77 298.5L399.5 299.8L405.86 306.28L406.29 306.5L406.5 304.34Z" fill="#AF946C"/>
        <path d="M549.25 346C554.911 346 559.5 344.209 559.5 342C559.5 339.791 554.911 338 549.25 338C543.589 338 539 339.791 539 342C539 344.209 543.589 346 549.25 346Z" fill="#378C79"/>
        <path d="M534.5 330.3L547.88 279.45L563.5 330.3H534.5Z" fill="#217D68"/>
        <path d="M550 312H548V342H550V312Z" fill="#AF946C"/>
        <path d="M548.5 317.44L554.23 312.14L555.5 313.32L549.14 319.21L548.71 319.4L548.5 317.44Z" fill="#AF946C"/>
        <path d="M548.5 324.7L554.23 319.4L555.5 320.58L549.14 326.47L548.71 326.66L548.5 324.7Z" fill="#AF946C"/>
        <path d="M549.5 321.07L543.77 315.77L542.5 316.95L548.86 322.84L549.29 323.03L549.5 321.07Z" fill="#AF946C"/>
        <path d="M291 359H261V389H291V359Z" fill="#6DA0AB"/>
        <path d="M273 364H265V372H273V364Z" fill="#C6F7FB"/>
        <path d="M288 364H280V372H288V364Z" fill="#C6F7FB"/>
        <path d="M273 377H265V385H273V377Z" fill="#C6F7FB"/>
        <path d="M288 377H280V389H288V377Z" fill="#70595E"/>
        <path d="M276 344L295.92 360.12H256.08L276 344Z" fill="#70595E"/>
        <path d="M282.01 336.09C282.12 328.93 283.56 323.53 285.21 324.03C286.86 324.53 288.11 330.74 287.99 337.91C287.88 345.07 286.44 350.47 284.79 349.97C283.22 349.49 282 343.83 282 337" fill="url(#paint1_linear)"/>
        <path d="M288.5 345H281V357H288.5V345Z" fill="#70595E"/>
    </g>
    <defs>
        <linearGradient id="paint0_linear" x1="486.5" y1="248" x2="486.5" y2="268" gradientUnits="userSpaceOnUse">
            <stop stop-color="#E0EBE8"/>
            <stop offset="1" stop-color="white"/>
        </linearGradient>
        <linearGradient id="paint1_linear" x1="285" y1="324" x2="285" y2="350" gradientUnits="userSpaceOnUse">
            <stop stop-color="#E0EBE8"/>
            <stop offset="1" stop-color="white"/>
        </linearGradient>
        <clipPath id="clip0">
            <rect width="800" height="300" fill="white" transform="translate(57 238)"/>
        </clipPath>
    </defs>
</svg>
