<?xml version="1.0" encoding="UTF-8"?>
<svg width="177px" height="177px" viewBox="0 0 177 177" version="1.1" xmlns="http://www.w3.org/2000/svg" xmlns:xlink="http://www.w3.org/1999/xlink">
    <!-- Generator: Sketch 60.1 (88133) - https://sketch.com -->
    <title>faviconsvg</title>
    <desc>Created with Sketch.</desc>
    <g id="Page-1" stroke="none" stroke-width="1" fill="none" fill-rule="evenodd">
        <g id="favicon">
            <circle id="Oval" fill="#D8D8D8" cx="88.5" cy="88.5" r="88.5"></circle>
            <g id="Group" transform="translate(18.000000, 17.000000)" fill-rule="nonzero">
                <path d="M60.6021898,139 C71.2562044,139 80.2343066,136.75951 87.5364964,132.27853 C91.7861314,129.709435 96.5744526,125.288201 101.90146,119.014829 L101.90146,119.014829 L104.684672,135.504836 L123,135.504836 L123,64.6157318 L67.8744526,64.6157318 L67.8744526,86.6621534 L98.489781,86.6621534 C97.1131387,95.3253815 93.4620438,102.330647 87.5364964,107.67795 C81.6109489,113.025253 74.0094891,115.698904 64.7321168,115.698904 C55.2751825,115.698904 46.8357664,112.323232 39.4138686,105.571889 C31.9919708,98.8205459 28.2810219,87.3193639 28.2810219,71.068343 C28.2810219,54.936815 31.7076642,42.8531055 38.5609489,34.8172147 C45.4142336,26.7813239 54.1678832,22.7633785 64.8218978,22.7633785 C70.3883212,22.7633785 75.4459854,23.7491941 79.9948905,25.7208253 C88.1350365,29.3056093 93.2525547,35.6088545 95.3474453,44.6305609 L95.3474453,44.6305609 L122.551095,44.6305609 C121.054745,31.9045777 115.204015,21.2846551 104.998905,12.770793 C94.7937956,4.25693101 81.2817518,0 64.4627737,0 C45.070073,0 29.4781022,6.45261122 17.6868613,19.3578337 C5.89562044,32.2630561 0,49.4102729 0,70.7994842 C0,91.9497099 5.83576642,108.618956 17.5072993,120.807221 C28.7,132.93574 43.0649635,139 60.6021898,139 Z" id="G" fill="#000000"></path>
                <polygon id="T" fill="#595959" points="123 135.504836 123 86.3107191 150.407363 86.3107191 150.407363 64 67 64 67 86.3107191 98.5288146 86.3107191 98.5288146 135.504836"></polygon>
            </g>
        </g>
    </g>
</svg>