<?xml version="1.0" encoding="UTF-8"?>
<svg width="78px" height="78px" viewBox="0 0 78 78" version="1.1" xmlns="http://www.w3.org/2000/svg" xmlns:xlink="http://www.w3.org/1999/xlink">
    <!-- Generator: Sketch 60.1 (88133) - https://sketch.com -->
    <title>Combined Shape</title>
    <desc>Created with Sketch.</desc>
    <g id="Page-1" stroke="none" stroke-width="1" fill="none" fill-rule="evenodd">
        <g id="Post-Copy-7" transform="translate(-963.000000, -61.000000)" fill="#007acc">
            <path d="M973.917759,63.2304474 L1001.99925,91.3122462 L1030.08224,63.2304474 C1032.41966,60.8930236 1036.17214,60.8330897 1038.58213,63.0506455 L1038.76955,63.2304474 C1041.16849,65.6293823 1041.16849,69.5188243 1038.76955,71.9177593 L1038.76955,71.9177593 L1010.68725,99.9992462 L1038.76955,128.082241 C1041.16849,130.481176 1041.16849,134.370618 1038.76955,136.769553 C1036.37062,139.168488 1032.48118,139.168488 1030.08224,136.769553 L1001.99925,108.687246 L973.917759,136.769553 C971.580335,139.106976 967.827861,139.16691 965.41787,136.949354 L965.230447,136.769553 C962.831512,134.370618 962.831512,130.481176 965.230447,128.082241 L965.230447,128.082241 L993.312246,99.9992462 L965.230447,71.9177593 C962.831512,69.5188243 962.831512,65.6293823 965.230447,63.2304474 C967.629382,60.8315124 971.518824,60.8315124 973.917759,63.2304474 Z" id="Combined-Shape"></path>
        </g>
    </g>
</svg>