<?xml version="1.0" encoding="UTF-8"?>
<svg width="105px" height="86px" viewBox="0 0 105 86" version="1.1" xmlns="http://www.w3.org/2000/svg" xmlns:xlink="http://www.w3.org/1999/xlink">
    <title>Open Menu</title>
    <g id="Page-1" stroke="none" stroke-width="1" fill="none" fill-rule="evenodd">
        <g id="Home-Expanded-Copy" transform="translate(-950.000000, -76.000000)" fill="#007acc">
            <g id="Hamburger" transform="translate(950.000000, 76.000000)">
                <path d="M97.8571429,73.7142857 C101.249749,73.7142857 104,76.4645365 104,79.8571429 C104,83.2497492 101.249749,86 97.8571429,86 L6.14285714,86 C2.75025082,86 4.15474447e-16,83.2497492 0,79.8571429 C-4.15474447e-16,76.4645365 2.75025082,73.7142857 6.14285714,73.7142857 L97.8571429,73.7142857 Z M97.8571429,36.8571429 C101.249749,36.8571429 104,39.6073937 104,43 C104,46.3926063 101.249749,49.1428571 97.8571429,49.1428571 L6.14285714,49.1428571 C2.75025082,49.1428571 4.15474447e-16,46.3926063 0,43 C-4.15474447e-16,39.6073937 2.75025082,36.8571429 6.14285714,36.8571429 L97.8571429,36.8571429 Z M98.8571429,1.83852933e-13 C102.249749,1.80374416e-13 105,2.75025082 105,6.14285714 C105,9.53546346 102.249749,12.2857143 98.8571429,12.2857143 L7.14285714,12.2857143 C3.75025082,12.2857143 1,9.53546346 1,6.14285714 C1,2.75025082 3.75025082,1.83587966e-13 7.14285714,1.83852933e-13 L98.8571429,1.83852933e-13 Z" id="Combined-Shape"></path>
            </g>
        </g>
    </g>
</svg>